<svg width="30" height="28" viewBox="0 0 30 28" fill="none" xmlns="http://www.w3.org/2000/svg">
<path d="M15 28C6.71371 28 0 21.7339 0 14C0 6.26613 6.71371 0 15 0C23.2863 0 30 6.26613 30 14C30 21.7339 23.2863 28 15 28ZM22.0161 11.5161H15V7.51371C15 6.90968 14.2137 6.60484 13.7601 7.03387L6.84677 13.5202C6.5625 13.7855 6.5625 14.2089 6.84677 14.4742L13.7601 20.9605C14.2198 21.3895 15 21.0847 15 20.4806V16.4839H22.0161C22.4153 16.4839 22.7419 16.179 22.7419 15.8065V12.1935C22.7419 11.821 22.4153 11.5161 22.0161 11.5161Z" fill="#939191"/>
</svg>
